<?xml version="1.0" encoding="UTF-8" standalone="no"?><svg xmlns="http://www.w3.org/2000/svg" xmlns:xlink="http://www.w3.org/1999/xlink"><symbol viewBox="0 0 18 16" id="barchart"><title>barchart</title><path d="M.563 15.156V4.187h4.5v10.97h-4.5zm1.406-9.562v8.156h1.686V5.594H1.97zm10.967.562h4.5v9h-4.5v-9zm3.094 7.594V7.562h-1.686v6.188h1.687zm-9.28 1.406V.25h4.5v14.906h-4.5zm1.406-13.5V13.75h1.688V1.656H8.156z" fill="currentColor" fill-rule="evenodd"/></symbol><symbol viewBox="0 0 17 17" id="cart"><title>cart</title><path d="M5.063 13.906c.386 0 .717.138.993.413.275.275.413.606.413.992 0 .387-.14.718-.414.994a1.354 1.354 0 0 1-.994.413c-.386 0-.717-.14-.993-.414a1.354 1.354 0 0 1-.414-.994c0-.386.138-.717.413-.993.275-.276.606-.414.992-.414zm9 0c.386 0 .717.138.993.413.275.275.413.606.413.992 0 .387-.14.718-.414.994a1.354 1.354 0 0 1-.993.413c-.387 0-.718-.14-.994-.414a1.354 1.354 0 0 1-.414-.994c0-.386.138-.717.413-.993.275-.276.606-.414.992-.414zM4.947 2.094h11.646l-.062.756c-.01.246-.07 1.006-.176 2.28-.105 1.275-.184 2.08-.237 2.413a2.293 2.293 0 0 1-.792 1.437c-.445.39-1 .63-1.66.725-.013 0-2.318.275-6.918.826V9.117c.48-.058 1.248-.15 2.303-.272 1.054-.123 2-.235 2.834-.334.835-.1 1.367-.167 1.595-.202.346-.04.63-.15.853-.326.223-.175.354-.392.395-.65.065-.416.18-1.693.343-3.832H5.063v7.304c0 .258.083.464.25.62.167.155.394.232.68.232h9.476v1.406H5.993c-.668 0-1.224-.215-1.67-.645-.445-.43-.668-.97-.668-1.613V2.78a.897.897 0 0 0-.312-.677 1.032 1.032 0 0 0-.725-.29H0V.405h2.62c.532 0 1.014.158 1.445.475.43.317.725.722.883 1.214z" fill="currentColor" fill-rule="evenodd"/></symbol><symbol viewBox="0 0 16 14" id="home"><title>home</title><path d="M8 .125l8.042 7.98-.984 1.002L8 2.11.942 9.108l-.984-1.002L8 .125zM12.5 12.5V8.158l1.406 1.398v4.35h-4.78v-4.5h-2.25v4.5H2.093v-4.35L3.5 8.158V12.5h1.97V8h5.06v4.5h1.97z" fill="currentColor" fill-rule="evenodd"/></symbol><symbol viewBox="0 0 12 17" id="location"><title>location</title><path d="M5.86 3.5c.503 0 .934.18 1.29.536.36.358.537.788.537 1.292s-.178.935-.536 1.292a1.76 1.76 0 0 1-1.29.536 1.76 1.76 0 0 1-1.293-.536 1.76 1.76 0 0 1-.536-1.292c0-.504.18-.934.537-1.292A1.76 1.76 0 0 1 5.86 3.5zm0-3.375c.78 0 1.524.152 2.236.457a5.762 5.762 0 0 1 1.84 1.235c.517.518.927 1.134 1.232 1.846.305.712.457 1.46.457 2.245 0 .61-.07 1.2-.21 1.776a7.41 7.41 0 0 1-.634 1.67c-.28.54-.552 1.01-.816 1.41-.264.402-.598.866-1.002 1.393l-2.55 3.287-.553.712-.554-.712a613.612 613.612 0 0 1-2.55-3.287 24.023 24.023 0 0 1-1-1.393c-.265-.4-.537-.87-.82-1.41a7.41 7.41 0 0 1-.63-1.67 7.437 7.437 0 0 1-.212-1.776c0-.785.152-1.533.457-2.245a5.852 5.852 0 0 1 1.23-1.846c.517-.52 1.13-.93 1.843-1.235A5.627 5.627 0 0 1 5.86.125zM7.862 11.33c.832-1.083 1.44-2.034 1.824-2.85.384-.818.576-1.68.576-2.59 0-.796-.197-1.535-.59-2.214A4.367 4.367 0 0 0 8.07 2.063a4.304 4.304 0 0 0-2.21-.593c-.798 0-1.534.197-2.21.593a4.367 4.367 0 0 0-1.605 1.613 4.352 4.352 0 0 0-.59 2.215c0 .91.193 1.772.577 2.59.384.816.99 1.767 1.823 2.85.364.482 1.032 1.35 2.004 2.603.972-1.254 1.64-2.12 2.003-2.602z" fill="currentColor" fill-rule="evenodd"/></symbol><symbol viewBox="0 0 10 7" id="navigatedown"><title>navigatedown</title><path d="M5.068 6.548L.16 1.64.933.86l4.135 4.136L9.204.86l.773.78z" fill="currentColor" fill-rule="evenodd"/></symbol><symbol viewBox="0 0 18 18" id="notification"><title>notification</title><path d="M17.438 12.52v1.73H.563v-1.738l.263-.235a4.3 4.3 0 0 0 .357-.34c.198-.203.472-.532.82-.988.348-.457.684-.96 1.006-1.51.32-.55.616-1.22.883-2.01.267-.792.43-1.585.488-2.38l.255-3.427.35-.205c.092-.06.265-.147.52-.264C5.757 1.037 6.22.9 6.89.74 7.56.58 8.25.5 8.96.5h.118c.443 0 .884.033 1.323.098.44.065.804.135 1.09.21.287.074.563.166.83.273.267.108.443.183.528.226.084.042.156.08.214.112l.352.205.254 3.428c.06.782.22 1.567.483 2.354.265.788.542 1.442.83 1.963.29.52.625 1.03 1.002 1.524.378.495.642.823.79.982.15.16.285.295.402.405l.01.01.253.234zm-14.834.168h12.802a14.05 14.05 0 0 1-.952-1.22c-.31-.444-.64-.988-.996-1.632a11 11 0 0 1-.894-2.188 11.99 11.99 0 0 1-.46-2.49L11.92 2.57a7.412 7.412 0 0 0-2.842-.537H8.96c-1.015 0-1.96.18-2.83.537l-.187 2.588c-.065.847-.22 1.677-.464 2.49-.245.814-.546 1.542-.904 2.183a18.45 18.45 0 0 1-1.006 1.627 14.69 14.69 0 0 1-.966 1.23zM9 16.468c.32 0 .61-.09.874-.27a1.53 1.53 0 0 0 .57-.698h1.622c-.143.723-.5 1.32-1.074 1.792A3.04 3.04 0 0 1 9 18a3.04 3.04 0 0 1-1.992-.708A3.018 3.018 0 0 1 5.934 15.5h1.62c.118.286.308.52.572.698.264.18.555.27.874.27z" fill="currentColor" fill-rule="evenodd"/></symbol></svg>