<?xml version="1.0" encoding="UTF-8" standalone="no"?>
<svg width="250px" height="150px" viewBox="0 0 250 150" version="1.1" xmlns="http://www.w3.org/2000/svg" xmlns:xlink="http://www.w3.org/1999/xlink">
    <!-- Generator: Sketch 3.7.1 (28215) - http://www.bohemiancoding.com/sketch -->
    <title>sprite</title>
    <desc>Created with Sketch.</desc>
    <defs></defs>
    <g id="Style-Guide" stroke="none" stroke-width="1" fill="none" fill-rule="evenodd">
        <g id="sprite" fill="#80858C">
            <polygon id="navigatedown" points="129.068359 18.5478516 124.160156 13.6396484 124.932617 12.8603516 129.068359 16.9960938 133.204102 12.8603516 133.976562 13.6396484"></polygon>
            <path d="M115.4375,19.5214844 L115.4375,21.25 L98.5625,21.25 L98.5625,19.5117188 L98.8261719,19.2773438 C98.8652346,19.251302 98.9840485,19.1373708 99.1826172,18.9355469 C99.3811859,18.7337229 99.6546207,18.4049502 100.00293,17.9492188 C100.351239,17.4934873 100.686522,16.9905626 101.008789,16.4404297 C101.331056,15.8902967 101.62565,15.2197305 101.892578,14.4287109 C102.159507,13.6376914 102.322265,12.8450561 102.380859,12.0507812 L102.634766,8.62304688 L102.986328,8.41796875 C103.077474,8.35937471 103.249999,8.27148496 103.503906,8.15429688 C103.757814,8.03710879 104.220049,7.89876382 104.890625,7.73925781 C105.561201,7.57975181 106.251299,7.5 106.960938,7.5 L107.078125,7.5 C107.520836,7.5 107.961912,7.53255176 108.401367,7.59765625 C108.840823,7.66276074 109.203775,7.73274702 109.490234,7.80761719 C109.776694,7.88248735 110.053384,7.97363228 110.320312,8.08105469 C110.587241,8.1884771 110.76302,8.26334614 110.847656,8.30566406 C110.932292,8.34798198 111.003906,8.3854165 111.0625,8.41796875 L111.414062,8.62304688 L111.667969,12.0507812 C111.726563,12.8320352 111.887694,13.6165325 112.151367,14.4042969 C112.41504,15.1920612 112.69173,15.8463516 112.981445,16.3671875 C113.27116,16.8880234 113.604816,17.3958309 113.982422,17.890625 C114.360028,18.3854191 114.623697,18.7125643 114.773438,18.8720703 C114.923178,19.0315763 115.05664,19.1666661 115.173828,19.2773438 L115.183594,19.2871094 L115.4375,19.5214844 Z M100.603516,19.6875 L113.40625,19.6875 C113.080728,19.3164044 112.763348,18.9095074 112.454102,18.4667969 C112.144855,18.0240863 111.812827,17.480472 111.458008,16.8359375 C111.103188,16.191403 110.80534,15.4622437 110.564453,14.6484375 C110.323567,13.8346313 110.170573,13.0045615 110.105469,12.1582031 L109.919922,9.5703125 C109.047522,9.21223779 108.100266,9.03320312 107.078125,9.03320312 L106.960938,9.03320312 C105.945307,9.03320312 105.001306,9.21223779 104.128906,9.5703125 L103.943359,12.1582031 C103.878255,13.0045615 103.723634,13.8346313 103.479492,14.6484375 C103.23535,15.4622437 102.934247,16.1897754 102.576172,16.8310547 C102.218097,17.4723339 101.882814,18.0143207 101.570312,18.4570312 C101.257811,18.8997418 100.935549,19.3098939 100.603516,19.6875 L100.603516,19.6875 Z M107,23.4667969 C107.319012,23.4667969 107.61035,23.3772795 107.874023,23.1982422 C108.137697,23.0192048 108.328124,22.7864598 108.445312,22.5 L110.066406,22.5 C109.923176,23.2226599 109.565107,23.8199846 108.992188,24.2919922 C108.419268,24.7639998 107.755212,25 107,25 C106.244788,25 105.580732,24.7639998 105.007812,24.2919922 C104.434893,23.8199846 104.076824,23.2226599 103.933594,22.5 L105.554688,22.5 C105.671876,22.7864598 105.862303,23.0192048 106.125977,23.1982422 C106.38965,23.3772795 106.680988,23.4667969 107,23.4667969 L107,23.4667969 Z" id="notification" fill="currentColor"></path>
            <path d="M74.5625,23.15625 L74.5625,12.1875 L79.0625,12.1875 L79.0625,23.15625 L74.5625,23.15625 Z M75.96875,13.59375 L75.96875,21.75 L77.65625,21.75 L77.65625,13.59375 L75.96875,13.59375 Z M86.9375,14.15625 L91.4375,14.15625 L91.4375,23.15625 L86.9375,23.15625 L86.9375,14.15625 Z M90.03125,21.75 L90.03125,15.5625 L88.34375,15.5625 L88.34375,21.75 L90.03125,21.75 Z M80.75,23.15625 L80.75,8.25 L85.25,8.25 L85.25,23.15625 L80.75,23.15625 Z M82.15625,9.65625 L82.15625,21.75 L83.84375,21.75 L83.84375,9.65625 L82.15625,9.65625 Z" id="barchart"></path>
            <path d="M59.859375,10.5 C60.3632838,10.5 60.7939435,10.6787092 61.1513672,11.0361328 C61.5087908,11.3935565 61.6875,11.8242162 61.6875,12.328125 C61.6875,12.8320338 61.5087908,13.2626935 61.1513672,13.6201172 C60.7939435,13.9775408 60.3632838,14.15625 59.859375,14.15625 C59.3554662,14.15625 58.9248065,13.9775408 58.5673828,13.6201172 C58.2099592,13.2626935 58.03125,12.8320338 58.03125,12.328125 C58.03125,11.8242162 58.2099592,11.3935565 58.5673828,11.0361328 C58.9248065,10.6787092 59.3554662,10.5 59.859375,10.5 L59.859375,10.5 Z M59.859375,7.125 C60.6386758,7.125 61.3842738,7.27734223 62.0961914,7.58203125 C62.808109,7.88672027 63.4218724,8.29833725 63.9375,8.81689453 C64.4531276,9.33545181 64.8632797,9.95068003 65.1679688,10.6625977 C65.4726578,11.3745153 65.625,12.1230429 65.625,12.9082031 C65.625,13.5175812 65.5546882,14.1093721 65.4140625,14.6835938 C65.2734368,15.2578154 65.0625014,15.8144504 64.78125,16.3535156 C64.4999986,16.8925808 64.2275404,17.362791 63.9638672,17.7641602 C63.700194,18.1655294 63.366213,18.6298802 62.9619141,19.1572266 L60.4130859,22.4443359 L59.859375,23.15625 L59.3056641,22.4443359 C58.086908,20.879875 57.2373071,19.7841828 56.7568359,19.1572266 C56.352537,18.6298802 56.018556,18.1655294 55.7548828,17.7641602 C55.4912096,17.362791 55.2187514,16.8925808 54.9375,16.3535156 C54.6562486,15.8144504 54.4453132,15.2578154 54.3046875,14.6835938 C54.1640618,14.1093721 54.09375,13.5175812 54.09375,12.9082031 C54.09375,12.1230429 54.2460922,11.3745153 54.5507812,10.6625977 C54.8554703,9.95068003 55.2656224,9.33545181 55.78125,8.81689453 C56.2968776,8.29833725 56.910641,7.88672027 57.6225586,7.58203125 C58.3344762,7.27734223 59.0800742,7.125 59.859375,7.125 L59.859375,7.125 Z M61.8632812,18.3310547 C62.6953167,17.2470649 63.3032207,16.2963908 63.6870117,15.4790039 C64.0708027,14.661617 64.2626953,13.7988327 64.2626953,12.890625 C64.2626953,12.093746 64.0664082,11.3554721 63.6738281,10.6757812 C63.281248,9.99609035 62.7465854,9.45849807 62.0698242,9.06298828 C61.393063,8.66747849 60.656254,8.46972656 59.859375,8.46972656 C59.062496,8.46972656 58.325687,8.66747849 57.6489258,9.06298828 C56.9721646,9.45849807 56.437502,9.99609035 56.0449219,10.6757812 C55.6523418,11.3554721 55.4560547,12.093746 55.4560547,12.890625 C55.4560547,13.7988327 55.6479473,14.661617 56.0317383,15.4790039 C56.4155293,16.2963908 57.0234333,17.2470649 57.8554688,18.3310547 C58.2187518,18.8115258 58.8867139,19.6787047 59.859375,20.9326172 C60.8320361,19.6787047 61.4999982,18.8115258 61.8632812,18.3310547 L61.8632812,18.3310547 Z" id="location"></path>
            <path d="M33.0625,20.90625 C33.4492207,20.90625 33.7802721,21.0439439 34.0556641,21.3193359 C34.3310561,21.5947279 34.46875,21.9257793 34.46875,22.3125 C34.46875,22.6992207 34.3310561,23.0302721 34.0556641,23.3056641 C33.7802721,23.5810561 33.4492207,23.71875 33.0625,23.71875 C32.6757793,23.71875 32.3447279,23.5810561 32.0693359,23.3056641 C31.7939439,23.0302721 31.65625,22.6992207 31.65625,22.3125 C31.65625,21.9257793 31.7939439,21.5947279 32.0693359,21.3193359 C32.3447279,21.0439439 32.6757793,20.90625 33.0625,20.90625 L33.0625,20.90625 Z M42.0625,20.90625 C42.4492207,20.90625 42.7802721,21.0439439 43.0556641,21.3193359 C43.3310561,21.5947279 43.46875,21.9257793 43.46875,22.3125 C43.46875,22.6992207 43.3310561,23.0302721 43.0556641,23.3056641 C42.7802721,23.5810561 42.4492207,23.71875 42.0625,23.71875 C41.6757793,23.71875 41.3447279,23.5810561 41.0693359,23.3056641 C40.7939439,23.0302721 40.65625,22.6992207 40.65625,22.3125 C40.65625,21.9257793 40.7939439,21.5947279 41.0693359,21.3193359 C41.3447279,21.0439439 41.6757793,20.90625 42.0625,20.90625 L42.0625,20.90625 Z M32.9482422,9.09375 L44.59375,9.09375 L44.5322266,9.84960938 C44.5205078,10.0957044 44.4619146,10.8559507 44.3564453,12.1303711 C44.250976,13.4047915 44.1718753,14.2089827 44.1191406,14.5429688 C44.037109,15.111331 43.7734397,15.5903301 43.328125,15.9799805 C42.8828103,16.3696309 42.3291049,16.6113277 41.6669922,16.7050781 C41.6552734,16.7050781 39.3496324,16.980466 34.75,17.53125 L34.75,16.1162109 C35.2304712,16.0576169 35.9980416,15.9667975 37.0527344,15.84375 C38.1074271,15.7207025 39.0522419,15.6093755 39.887207,15.5097656 C40.7221721,15.4101558 41.2539051,15.3427736 41.4824219,15.3076172 C41.8281267,15.2666014 42.1123036,15.158204 42.3349609,14.9824219 C42.5576183,14.8066397 42.6894529,14.589845 42.7304688,14.3320312 C42.7949222,13.9160135 42.9091789,12.6386826 43.0732422,10.5 L33.0625,10.5 L33.0625,17.8037109 C33.0625,18.0615247 33.1459953,18.2680656 33.3129883,18.4233398 C33.4799813,18.5786141 33.7070298,18.65625 33.9941406,18.65625 L43.46875,18.65625 L43.46875,20.0625 L33.9941406,20.0625 C33.3261685,20.0625 32.7695335,19.8471701 32.3242188,19.4165039 C31.878904,18.9858377 31.65625,18.4482454 31.65625,17.8037109 L31.65625,9.77929688 C31.65625,9.52148309 31.5522471,9.2958994 31.3442383,9.10253906 C31.1362294,8.90917872 30.8945326,8.8125 30.6191406,8.8125 L28,8.8125 L28,7.40625 L30.6191406,7.40625 C31.1523464,7.40625 31.6342752,7.56445154 32.0649414,7.88085938 C32.4956076,8.19726721 32.7900383,8.60156004 32.9482422,9.09375 L32.9482422,9.09375 Z" id="cart"></path>
            <path d="M14,7.125 L22.0419922,15.1054688 L21.0576172,16.1074219 L14,9.11132812 L6.94238281,16.1074219 L5.95800781,15.1054688 L14,7.125 Z M18.5,19.5 L18.5,15.1582031 L19.90625,16.5556641 L19.90625,20.90625 L15.125,20.90625 L15.125,16.40625 L12.875,16.40625 L12.875,20.90625 L8.09375,20.90625 L8.09375,16.5556641 L9.5,15.1582031 L9.5,19.5 L11.46875,19.5 L11.46875,15 L16.53125,15 L16.53125,19.5 L18.5,19.5 Z" id="home" fill="currentColor"></path>
        </g>
    </g>
</svg>