<?xml version="1.0" encoding="UTF-8" standalone="no"?>
<svg width="18px" height="16px" viewBox="0 0 18 16" version="1.1" xmlns="http://www.w3.org/2000/svg" xmlns:xlink="http://www.w3.org/1999/xlink">
    <!-- Generator: Sketch 3.7.1 (28215) - http://www.bohemiancoding.com/sketch -->
    <title>barchart</title>
    <desc>Created with Sketch.</desc>
    <defs></defs>
    <g id="Style-Guide" stroke="none" stroke-width="1" fill="none" fill-rule="evenodd">
        <g id="sprite" transform="translate(-74.000000, -8.000000)" fill="currentColor">
            <path d="M74.5625,23.15625 L74.5625,12.1875 L79.0625,12.1875 L79.0625,23.15625 L74.5625,23.15625 Z M75.96875,13.59375 L75.96875,21.75 L77.65625,21.75 L77.65625,13.59375 L75.96875,13.59375 Z M86.9375,14.15625 L91.4375,14.15625 L91.4375,23.15625 L86.9375,23.15625 L86.9375,14.15625 Z M90.03125,21.75 L90.03125,15.5625 L88.34375,15.5625 L88.34375,21.75 L90.03125,21.75 Z M80.75,23.15625 L80.75,8.25 L85.25,8.25 L85.25,23.15625 L80.75,23.15625 Z M82.15625,9.65625 L82.15625,21.75 L83.84375,21.75 L83.84375,9.65625 L82.15625,9.65625 Z" id="barchart"></path>
        </g>
    </g>
</svg>