<?xml version="1.0" encoding="UTF-8" standalone="no"?>
<svg width="17px" height="17px" viewBox="0 0 17 17" version="1.1" xmlns="http://www.w3.org/2000/svg" xmlns:xlink="http://www.w3.org/1999/xlink">
    <!-- Generator: Sketch 3.7.1 (28215) - http://www.bohemiancoding.com/sketch -->
    <title>cart</title>
    <desc>Created with Sketch.</desc>
    <defs></defs>
    <g id="Style-Guide" stroke="none" stroke-width="1" fill="none" fill-rule="evenodd">
        <g id="sprite" transform="translate(-28.000000, -7.000000)" fill="currentColor">
            <path d="M33.0625,20.90625 C33.4492207,20.90625 33.7802721,21.0439439 34.0556641,21.3193359 C34.3310561,21.5947279 34.46875,21.9257793 34.46875,22.3125 C34.46875,22.6992207 34.3310561,23.0302721 34.0556641,23.3056641 C33.7802721,23.5810561 33.4492207,23.71875 33.0625,23.71875 C32.6757793,23.71875 32.3447279,23.5810561 32.0693359,23.3056641 C31.7939439,23.0302721 31.65625,22.6992207 31.65625,22.3125 C31.65625,21.9257793 31.7939439,21.5947279 32.0693359,21.3193359 C32.3447279,21.0439439 32.6757793,20.90625 33.0625,20.90625 L33.0625,20.90625 Z M42.0625,20.90625 C42.4492207,20.90625 42.7802721,21.0439439 43.0556641,21.3193359 C43.3310561,21.5947279 43.46875,21.9257793 43.46875,22.3125 C43.46875,22.6992207 43.3310561,23.0302721 43.0556641,23.3056641 C42.7802721,23.5810561 42.4492207,23.71875 42.0625,23.71875 C41.6757793,23.71875 41.3447279,23.5810561 41.0693359,23.3056641 C40.7939439,23.0302721 40.65625,22.6992207 40.65625,22.3125 C40.65625,21.9257793 40.7939439,21.5947279 41.0693359,21.3193359 C41.3447279,21.0439439 41.6757793,20.90625 42.0625,20.90625 L42.0625,20.90625 Z M32.9482422,9.09375 L44.59375,9.09375 L44.5322266,9.84960938 C44.5205078,10.0957044 44.4619146,10.8559507 44.3564453,12.1303711 C44.250976,13.4047915 44.1718753,14.2089827 44.1191406,14.5429688 C44.037109,15.111331 43.7734397,15.5903301 43.328125,15.9799805 C42.8828103,16.3696309 42.3291049,16.6113277 41.6669922,16.7050781 C41.6552734,16.7050781 39.3496324,16.980466 34.75,17.53125 L34.75,16.1162109 C35.2304712,16.0576169 35.9980416,15.9667975 37.0527344,15.84375 C38.1074271,15.7207025 39.0522419,15.6093755 39.887207,15.5097656 C40.7221721,15.4101558 41.2539051,15.3427736 41.4824219,15.3076172 C41.8281267,15.2666014 42.1123036,15.158204 42.3349609,14.9824219 C42.5576183,14.8066397 42.6894529,14.589845 42.7304688,14.3320312 C42.7949222,13.9160135 42.9091789,12.6386826 43.0732422,10.5 L33.0625,10.5 L33.0625,17.8037109 C33.0625,18.0615247 33.1459953,18.2680656 33.3129883,18.4233398 C33.4799813,18.5786141 33.7070298,18.65625 33.9941406,18.65625 L43.46875,18.65625 L43.46875,20.0625 L33.9941406,20.0625 C33.3261685,20.0625 32.7695335,19.8471701 32.3242188,19.4165039 C31.878904,18.9858377 31.65625,18.4482454 31.65625,17.8037109 L31.65625,9.77929688 C31.65625,9.52148309 31.5522471,9.2958994 31.3442383,9.10253906 C31.1362294,8.90917872 30.8945326,8.8125 30.6191406,8.8125 L28,8.8125 L28,7.40625 L30.6191406,7.40625 C31.1523464,7.40625 31.6342752,7.56445154 32.0649414,7.88085938 C32.4956076,8.19726721 32.7900383,8.60156004 32.9482422,9.09375 L32.9482422,9.09375 Z" id="cart"></path>
        </g>
    </g>
</svg>