<?xml version="1.0" encoding="UTF-8" standalone="no"?>
<svg width="12px" height="17px" viewBox="0 0 12 17" version="1.1" xmlns="http://www.w3.org/2000/svg" xmlns:xlink="http://www.w3.org/1999/xlink">
    <!-- Generator: Sketch 3.7.1 (28215) - http://www.bohemiancoding.com/sketch -->
    <title>location</title>
    <desc>Created with Sketch.</desc>
    <defs></defs>
    <g id="Style-Guide" stroke="none" stroke-width="1" fill="none" fill-rule="evenodd">
        <g id="sprite" transform="translate(-54.000000, -7.000000)" fill="currentColor">
            <path d="M59.859375,10.5 C60.3632838,10.5 60.7939435,10.6787092 61.1513672,11.0361328 C61.5087908,11.3935565 61.6875,11.8242162 61.6875,12.328125 C61.6875,12.8320338 61.5087908,13.2626935 61.1513672,13.6201172 C60.7939435,13.9775408 60.3632838,14.15625 59.859375,14.15625 C59.3554662,14.15625 58.9248065,13.9775408 58.5673828,13.6201172 C58.2099592,13.2626935 58.03125,12.8320338 58.03125,12.328125 C58.03125,11.8242162 58.2099592,11.3935565 58.5673828,11.0361328 C58.9248065,10.6787092 59.3554662,10.5 59.859375,10.5 L59.859375,10.5 Z M59.859375,7.125 C60.6386758,7.125 61.3842738,7.27734223 62.0961914,7.58203125 C62.808109,7.88672027 63.4218724,8.29833725 63.9375,8.81689453 C64.4531276,9.33545181 64.8632797,9.95068003 65.1679688,10.6625977 C65.4726578,11.3745153 65.625,12.1230429 65.625,12.9082031 C65.625,13.5175812 65.5546882,14.1093721 65.4140625,14.6835938 C65.2734368,15.2578154 65.0625014,15.8144504 64.78125,16.3535156 C64.4999986,16.8925808 64.2275404,17.362791 63.9638672,17.7641602 C63.700194,18.1655294 63.366213,18.6298802 62.9619141,19.1572266 L60.4130859,22.4443359 L59.859375,23.15625 L59.3056641,22.4443359 C58.086908,20.879875 57.2373071,19.7841828 56.7568359,19.1572266 C56.352537,18.6298802 56.018556,18.1655294 55.7548828,17.7641602 C55.4912096,17.362791 55.2187514,16.8925808 54.9375,16.3535156 C54.6562486,15.8144504 54.4453132,15.2578154 54.3046875,14.6835938 C54.1640618,14.1093721 54.09375,13.5175812 54.09375,12.9082031 C54.09375,12.1230429 54.2460922,11.3745153 54.5507812,10.6625977 C54.8554703,9.95068003 55.2656224,9.33545181 55.78125,8.81689453 C56.2968776,8.29833725 56.910641,7.88672027 57.6225586,7.58203125 C58.3344762,7.27734223 59.0800742,7.125 59.859375,7.125 L59.859375,7.125 Z M61.8632812,18.3310547 C62.6953167,17.2470649 63.3032207,16.2963908 63.6870117,15.4790039 C64.0708027,14.661617 64.2626953,13.7988327 64.2626953,12.890625 C64.2626953,12.093746 64.0664082,11.3554721 63.6738281,10.6757812 C63.281248,9.99609035 62.7465854,9.45849807 62.0698242,9.06298828 C61.393063,8.66747849 60.656254,8.46972656 59.859375,8.46972656 C59.062496,8.46972656 58.325687,8.66747849 57.6489258,9.06298828 C56.9721646,9.45849807 56.437502,9.99609035 56.0449219,10.6757812 C55.6523418,11.3554721 55.4560547,12.093746 55.4560547,12.890625 C55.4560547,13.7988327 55.6479473,14.661617 56.0317383,15.4790039 C56.4155293,16.2963908 57.0234333,17.2470649 57.8554688,18.3310547 C58.2187518,18.8115258 58.8867139,19.6787047 59.859375,20.9326172 C60.8320361,19.6787047 61.4999982,18.8115258 61.8632812,18.3310547 L61.8632812,18.3310547 Z" id="location"></path>
        </g>
    </g>
</svg>