<?xml version="1.0" encoding="UTF-8" standalone="no"?>
<svg width="18px" height="18px" viewBox="0 0 18 18" version="1.1" xmlns="http://www.w3.org/2000/svg" xmlns:xlink="http://www.w3.org/1999/xlink">
    <!-- Generator: Sketch 3.7.1 (28215) - http://www.bohemiancoding.com/sketch -->
    <title>notification</title>
    <desc>Created with Sketch.</desc>
    <defs></defs>
    <g id="Style-Guide" stroke="none" stroke-width="1" fill="none" fill-rule="evenodd">
        <g id="sprite" transform="translate(-98.000000, -7.000000)" fill="currentColor">
            <path d="M115.4375,19.5214844 L115.4375,21.25 L98.5625,21.25 L98.5625,19.5117188 L98.8261719,19.2773438 C98.8652346,19.251302 98.9840485,19.1373708 99.1826172,18.9355469 C99.3811859,18.7337229 99.6546207,18.4049502 100.00293,17.9492188 C100.351239,17.4934873 100.686522,16.9905626 101.008789,16.4404297 C101.331056,15.8902967 101.62565,15.2197305 101.892578,14.4287109 C102.159507,13.6376914 102.322265,12.8450561 102.380859,12.0507812 L102.634766,8.62304688 L102.986328,8.41796875 C103.077474,8.35937471 103.249999,8.27148496 103.503906,8.15429688 C103.757814,8.03710879 104.220049,7.89876382 104.890625,7.73925781 C105.561201,7.57975181 106.251299,7.5 106.960938,7.5 L107.078125,7.5 C107.520836,7.5 107.961912,7.53255176 108.401367,7.59765625 C108.840823,7.66276074 109.203775,7.73274702 109.490234,7.80761719 C109.776694,7.88248735 110.053384,7.97363228 110.320312,8.08105469 C110.587241,8.1884771 110.76302,8.26334614 110.847656,8.30566406 C110.932292,8.34798198 111.003906,8.3854165 111.0625,8.41796875 L111.414062,8.62304688 L111.667969,12.0507812 C111.726563,12.8320352 111.887694,13.6165325 112.151367,14.4042969 C112.41504,15.1920612 112.69173,15.8463516 112.981445,16.3671875 C113.27116,16.8880234 113.604816,17.3958309 113.982422,17.890625 C114.360028,18.3854191 114.623697,18.7125643 114.773438,18.8720703 C114.923178,19.0315763 115.05664,19.1666661 115.173828,19.2773438 L115.183594,19.2871094 L115.4375,19.5214844 Z M100.603516,19.6875 L113.40625,19.6875 C113.080728,19.3164044 112.763348,18.9095074 112.454102,18.4667969 C112.144855,18.0240863 111.812827,17.480472 111.458008,16.8359375 C111.103188,16.191403 110.80534,15.4622437 110.564453,14.6484375 C110.323567,13.8346313 110.170573,13.0045615 110.105469,12.1582031 L109.919922,9.5703125 C109.047522,9.21223779 108.100266,9.03320312 107.078125,9.03320312 L106.960938,9.03320312 C105.945307,9.03320312 105.001306,9.21223779 104.128906,9.5703125 L103.943359,12.1582031 C103.878255,13.0045615 103.723634,13.8346313 103.479492,14.6484375 C103.23535,15.4622437 102.934247,16.1897754 102.576172,16.8310547 C102.218097,17.4723339 101.882814,18.0143207 101.570312,18.4570312 C101.257811,18.8997418 100.935549,19.3098939 100.603516,19.6875 L100.603516,19.6875 Z M107,23.4667969 C107.319012,23.4667969 107.61035,23.3772795 107.874023,23.1982422 C108.137697,23.0192048 108.328124,22.7864598 108.445312,22.5 L110.066406,22.5 C109.923176,23.2226599 109.565107,23.8199846 108.992188,24.2919922 C108.419268,24.7639998 107.755212,25 107,25 C106.244788,25 105.580732,24.7639998 105.007812,24.2919922 C104.434893,23.8199846 104.076824,23.2226599 103.933594,22.5 L105.554688,22.5 C105.671876,22.7864598 105.862303,23.0192048 106.125977,23.1982422 C106.38965,23.3772795 106.680988,23.4667969 107,23.4667969 L107,23.4667969 Z" id="notification"></path>
        </g>
    </g>
</svg>