<?xml version="1.0" encoding="UTF-8" standalone="no"?>
<svg width="16px" height="16px" viewBox="0 0 16 16" version="1.1" xmlns="http://www.w3.org/2000/svg" xmlns:xlink="http://www.w3.org/1999/xlink">
    <!-- Generator: Sketch 3.7.1 (28215) - http://www.bohemiancoding.com/sketch -->
    <title>promoter</title>
    <desc>Created with Sketch.</desc>
    <defs></defs>
    <g id="Style-Guide" stroke="none" stroke-width="1" fill="none" fill-rule="evenodd">
        <g id="sprite" transform="translate(-140.000000, -9.000000)" fill="#80858C">
            <path d="M147.976562,17.84375 C146.857416,17.84375 145.92139,17.3911178 145.168457,16.4858398 C144.415524,15.5805619 144.039062,14.4541083 144.039062,13.1064453 C144.039062,12.4033168 144.217772,11.7441437 144.575195,11.1289062 C144.932619,10.5136688 145.414548,10.0258807 146.020996,9.66552734 C146.627444,9.30517398 147.279293,9.125 147.976562,9.125 C148.673832,9.125 149.325681,9.30517398 149.932129,9.66552734 C150.538577,10.0258807 151.020506,10.5136688 151.37793,11.1289062 C151.735353,11.7441437 151.914062,12.4033168 151.914062,13.1064453 C151.914062,14.4541083 151.537601,15.5805619 150.784668,16.4858398 C150.031735,17.3911178 149.095709,17.84375 147.976562,17.84375 L147.976562,17.84375 Z M147.976562,10.4873047 C147.296872,10.4873047 146.699221,10.7495091 146.183594,11.2739258 C145.667966,11.7983425 145.410156,12.4091762 145.410156,13.1064453 C145.410156,14.0673876 145.654783,14.870114 146.144043,15.5146484 C146.633303,16.1591829 147.244137,16.4814453 147.976562,16.4814453 C148.708988,16.4814453 149.319822,16.1591829 149.809082,15.5146484 C150.298342,14.870114 150.542969,14.0673876 150.542969,13.1064453 C150.542969,12.4091762 150.285159,11.7983425 149.769531,11.2739258 C149.253904,10.7495091 148.656253,10.4873047 147.976562,10.4873047 L147.976562,10.4873047 Z M142.079102,24.875 L140.672852,24.875 L140.795898,23.4335938 C140.948243,21.9921803 141.641107,20.8876992 142.874512,20.1201172 C144.107916,19.3525352 145.808583,18.96875 147.976562,18.96875 C150.144542,18.96875 151.845209,19.3510704 153.078613,20.1157227 C154.312018,20.8803749 155.004882,21.9833912 155.157227,23.4248047 L155.280273,24.875 L153.874023,24.875 L153.750977,23.5566406 C153.698242,23.0527319 153.541505,22.605959 153.280762,22.2163086 C153.020018,21.8266582 152.70215,21.5175793 152.327148,21.2890625 C151.952147,21.0605457 151.511233,20.8730476 151.004395,20.7265625 C150.497556,20.5800774 150.002444,20.480469 149.519043,20.4277344 C149.035642,20.3749997 148.521487,20.3486328 147.976562,20.3486328 C147.431638,20.3486328 146.917483,20.3749997 146.434082,20.4277344 C145.950681,20.480469 145.455569,20.5800774 144.94873,20.7265625 C144.441892,20.8730476 144.000978,21.0620106 143.625977,21.293457 C143.250975,21.5249035 142.933107,21.8339824 142.672363,22.2207031 C142.41162,22.6074238 142.254883,23.0556615 142.202148,23.5654297 L142.079102,24.875 Z" id="promoter"></path>
        </g>
    </g>
</svg>